<svg xmlns="http://www.w3.org/2000/svg" xmlns:xlink="http://www.w3.org/1999/xlink" viewBox="0,0,256,256" width="64px" height="64px" fill-rule="nonzero"><g fill="none" fill-rule="nonzero" stroke="none" stroke-width="none" stroke-linecap="none" stroke-linejoin="none" stroke-miterlimit="10" stroke-dasharray="" stroke-dashoffset="0" font-family="none" font-weight="none" font-size="none" text-anchor="none" style="mix-blend-mode: normal"><g transform="scale(4,4)"><path d="M14,55c-1.28,0 -2.559,-0.488 -3.536,-1.465c-1.953,-1.952 -1.953,-5.118 0,-7.07l18,-18c1.953,-1.953 5.118,-1.953 7.071,0c1.953,1.952 1.953,5.118 0,7.07l-18,18c-0.976,0.977 -2.255,1.465 -3.535,1.465z" fill="#d60b8b" stroke="none" stroke-width="1" stroke-linecap="butt" stroke-linejoin="miter"></path><ellipse cx="32" cy="61" rx="19" ry="3" fill="#000000" stroke="none" stroke-width="1" stroke-linecap="butt" stroke-linejoin="miter" opacity="0.3"></ellipse><circle cx="35.5" cy="27.5" r="21.5" fill="#a7b3c7" stroke="none" stroke-width="1" stroke-linecap="butt" stroke-linejoin="miter"></circle><circle cx="35.5" cy="27.5" r="14.5" fill="#4ccff1" stroke="none" stroke-width="1" stroke-linecap="butt" stroke-linejoin="miter"></circle><path d="M23.825,21.903c0.583,-1.375 1.426,-2.615 2.467,-3.656c1.041,-1.041 2.281,-1.884 3.656,-2.467" fill="none" stroke="#ffffff" stroke-width="3" stroke-linecap="round" stroke-linejoin="round"></path><path d="M56.407,22.56c-2.478,0.296 -4.407,2.381 -4.407,4.94c0,9.098 -7.402,16.5 -16.5,16.5c-2.841,0 -5.655,-0.747 -8.139,-2.161c-1.957,-1.113 -4.417,-0.783 -6.01,0.81l-7.351,7.351c-1.305,1.305 -1.717,3.148 -1.277,4.813c0.419,0.111 0.846,0.187 1.277,0.187c1.28,0 2.559,-0.488 3.536,-1.465l7.352,-7.352c3.133,1.784 6.749,2.817 10.612,2.817c11.874,0 21.5,-9.626 21.5,-21.5c0,-1.703 -0.219,-3.352 -0.593,-4.94z" fill="#000000" stroke="none" stroke-width="1" stroke-linecap="butt" stroke-linejoin="miter" opacity="0.15"></path><path d="M14.579,32.442c2.485,-0.291 4.421,-2.379 4.421,-4.942c0,-9.098 7.402,-16.5 16.5,-16.5c2.558,0 4.644,-1.928 4.94,-4.407c-1.588,-0.374 -3.237,-0.593 -4.94,-0.593c-11.874,0 -21.5,9.626 -21.5,21.5c0,1.702 0.204,3.355 0.579,4.942z" fill="#ffffff" stroke="none" stroke-width="1" stroke-linecap="butt" stroke-linejoin="miter" opacity="0.3"></path></g></g></svg>