<?xml version="1.0" standalone="no"?>
<!DOCTYPE svg PUBLIC "-//W3C//DTD SVG 20010904//EN"
 "http://www.w3.org/TR/2001/REC-SVG-20010904/DTD/svg10.dtd">
<svg version="1.0" xmlns="http://www.w3.org/2000/svg"
 width="1080.000000pt" height="1920.000000pt" viewBox="0 0 1080.000000 1920.000000"
 preserveAspectRatio="xMidYMid meet">

<g transform="translate(0.000000,1920.000000) scale(0.100000,-0.100000)"
fill="#000000" stroke="none">
<path d="M8568 19184 c17 -12 34 -14 60 -9 90 17 224 -4 311 -49 41 -22 58
-20 92 9 35 29 88 41 126 27 32 -11 68 -1 76 22 6 14 -28 16 -341 16 -321 0
-345 -1 -324 -16z"/>
<path d="M9910 19193 c0 -5 7 -17 15 -27 8 -11 15 -33 15 -49 0 -22 4 -28 18
-25 33 7 6 108 -30 108 -10 0 -18 -3 -18 -7z"/>
<path d="M2870 19100 c0 -5 10 -10 23 -10 18 0 19 2 7 10 -19 13 -30 13 -30 0z"/>
<path d="M2980 19040 c0 -16 18 -30 41 -30 19 0 8 25 -16 37 -22 10 -25 9 -25
-7z"/>
<path d="M9905 18860 c-9 -14 4 -52 16 -45 12 8 12 42 0 50 -5 3 -12 1 -16 -5z"/>
<path d="M8830 18850 c0 -5 7 -10 16 -10 8 0 12 5 9 10 -3 6 -10 10 -16 10 -5
0 -9 -4 -9 -10z"/>
<path d="M9512 18848 c3 -7 13 -15 22 -16 12 -3 17 1 14 10 -3 7 -13 15 -22
16 -12 3 -17 -1 -14 -10z"/>
<path d="M9720 18759 c0 -12 11 -32 25 -45 23 -21 27 -22 32 -7 8 21 -18 67
-40 71 -12 2 -17 -3 -17 -19z"/>
<path d="M9942 18753 c2 -20 9 -29 26 -31 24 -4 28 9 12 39 -17 30 -42 24 -38
-8z"/>
<path d="M8813 18673 c-20 -7 -18 -143 1 -143 40 0 67 130 30 144 -9 3 -16 6
-17 5 -1 0 -8 -3 -14 -6z"/>
<path d="M9795 18638 c-4 -9 -2 -24 3 -33 12 -23 22 2 12 30 -7 18 -9 18 -15
3z"/>
<path d="M9376 18568 c-15 -17 -16 -22 -5 -29 8 -5 21 -9 30 -9 20 0 29 -29
29 -97 0 -50 2 -53 25 -53 32 0 34 32 5 75 -11 17 -20 46 -20 65 -1 25 -7 40
-24 52 -22 16 -24 15 -40 -4z"/>
<path d="M9894 18439 c-3 -6 1 -18 10 -27 15 -15 16 -14 16 11 0 27 -13 36
-26 16z"/>
<path d="M8873 18302 c-17 -11 -9 -46 10 -50 12 -3 17 4 17 22 0 28 -10 38
-27 28z"/>
<path d="M9526 18245 c-3 -8 -16 -15 -30 -15 -14 0 -28 -4 -31 -10 -4 -6 15
-10 50 -10 48 0 56 3 51 16 -3 9 -6 20 -6 25 0 15 -27 10 -34 -6z"/>
<path d="M10233 18209 c4 -13 7 -27 7 -31 0 -5 5 -8 11 -8 15 0 6 53 -10 58
-10 4 -12 -1 -8 -19z"/>
<path d="M9380 18178 c0 -7 5 -20 10 -28 9 -13 11 -13 20 0 16 24 12 40 -10
40 -11 0 -20 -6 -20 -12z"/>
<path d="M10290 18109 c0 -5 5 -7 10 -4 6 3 10 8 10 11 0 2 -4 4 -10 4 -5 0
-10 -5 -10 -11z"/>
<path d="M9904 18055 c-8 -19 2 -45 16 -45 6 0 15 11 20 24 5 13 15 26 22 29
7 3 -2 6 -20 6 -20 1 -35 -5 -38 -14z"/>
<path d="M9463 18042 c-8 -5 -9 -13 -3 -22 7 -12 12 -12 22 -2 14 14 -1 35
-19 24z"/>
<path d="M9947 17973 c-3 -5 -2 -15 2 -22 7 -10 10 -10 16 -1 4 6 3 16 -3 22
-5 5 -12 6 -15 1z"/>
<path d="M9540 17862 c0 -23 36 -47 43 -27 3 7 -2 20 -12 29 -23 21 -31 20
-31 -2z"/>
<path d="M10204 17811 c4 -6 13 -11 21 -11 7 0 16 -8 19 -17 3 -11 4 -7 3 7
-1 18 -9 26 -26 28 -15 2 -21 0 -17 -7z"/>
<path d="M9607 17773 c-23 -22 6 -78 37 -71 12 3 12 8 -1 41 -15 36 -23 43
-36 30z"/>
<path d="M10045 17746 c-15 -11 -15 -14 2 -35 14 -17 25 -22 41 -17 19 7 23
13 22 44 -1 14 -49 20 -65 8z"/>
<path d="M9416 17693 c4 -10 7 -30 7 -45 0 -21 5 -28 18 -28 12 0 19 7 19 19
0 34 -19 71 -36 71 -12 0 -14 -5 -8 -17z"/>
<path d="M10281 17694 c0 -11 3 -14 6 -6 3 7 2 16 -1 19 -3 4 -6 -2 -5 -13z"/>
<path d="M10132 17640 c0 -14 2 -19 5 -12 2 6 2 18 0 25 -3 6 -5 1 -5 -13z"/>
<path d="M9853 17643 c-20 -7 -15 -37 7 -50 16 -11 21 -10 28 4 19 34 -1 60
-35 46z"/>
<path d="M10233 17454 c-9 -24 13 -40 31 -22 11 11 12 18 3 27 -15 15 -27 14
-34 -5z"/>
<path d="M9906 17274 c-9 -22 3 -32 14 -14 12 19 12 30 1 30 -5 0 -12 -7 -15
-16z"/>
<path d="M6980 17010 c-90 -5 -122 -11 -148 -27 l-32 -20 54 -12 c34 -8 90
-10 157 -5 80 5 114 3 149 -9 25 -9 80 -19 122 -22 45 -4 82 -13 89 -21 6 -7
32 -16 57 -20 26 -4 58 -12 72 -19 44 -22 112 -27 144 -10 15 8 35 15 42 15
17 0 19 -30 2 -30 -8 0 -7 -4 3 -10 20 -12 90 -14 141 -5 30 6 39 4 44 -9 4
-11 13 -14 31 -10 20 5 33 -2 69 -37 24 -24 44 -51 44 -59 0 -8 7 -24 15 -34
8 -11 15 -29 15 -40 0 -17 -9 -11 -45 29 -25 27 -45 53 -45 56 0 4 -14 12 -31
18 -27 9 -32 8 -36 -9 -3 -10 -18 -23 -34 -29 -32 -11 -59 -34 -59 -50 0 -5
-6 -14 -14 -18 -8 -4 -37 -29 -64 -55 -27 -26 -85 -66 -128 -88 -72 -37 -82
-46 -108 -96 l-29 -56 37 -34 c20 -19 32 -34 25 -34 -6 0 -21 -9 -33 -21 -27
-26 -124 -99 -131 -99 -9 0 -136 -105 -178 -147 -21 -21 -64 -65 -96 -98 -85
-87 -159 -155 -170 -155 -5 0 -19 -14 -31 -30 -23 -32 -192 -200 -214 -212 -8
-4 -40 -40 -72 -80 -32 -40 -68 -82 -80 -94 -12 -11 -25 -30 -28 -41 -4 -11
-16 -25 -29 -30 -12 -6 -42 -28 -67 -50 -60 -53 -90 -69 -90 -48 0 8 5 15 10
15 6 0 10 7 10 15 0 20 -20 19 -36 -2 -12 -17 -13 -17 -19 0 -4 9 0 32 9 51 9
19 16 45 16 59 0 15 13 38 32 57 25 26 29 34 17 41 -24 15 -36 10 -68 -26 -25
-29 -31 -44 -31 -82 0 -26 -6 -54 -14 -62 -7 -9 -16 -46 -19 -83 -7 -73 5 -95
43 -83 11 4 20 2 20 -4 0 -6 -9 -11 -20 -11 -11 0 -20 -6 -20 -14 0 -8 -8 -21
-18 -28 -33 -24 -70 -83 -82 -133 -8 -31 -27 -67 -51 -95 -37 -43 -39 -44 -53
-25 -14 19 -15 19 -40 -8 -14 -15 -26 -37 -26 -48 0 -10 -5 -19 -11 -19 -5 0
-25 -16 -43 -36 -18 -19 -43 -41 -57 -47 -13 -7 -33 -31 -44 -54 -14 -32 -25
-43 -42 -43 -12 0 -27 -9 -33 -20 -17 -32 -30 -23 -30 19 0 21 -8 62 -17 91
-13 41 -14 56 -5 71 31 49 -6 149 -44 118 -19 -16 -18 -26 6 -32 26 -7 29 -71
4 -81 -14 -5 -16 -16 -11 -55 6 -50 -12 -141 -33 -166 -18 -21 14 -97 52 -125
25 -19 35 -21 49 -11 10 6 27 11 37 11 27 0 72 52 72 83 0 17 10 36 25 49 14
12 23 28 20 35 -2 8 2 16 10 19 8 4 15 15 15 25 0 11 10 23 23 28 12 5 34 21
50 36 l27 28 0 -24 c0 -13 -9 -30 -20 -37 -11 -7 -20 -19 -20 -27 0 -8 -5 -15
-10 -15 -6 0 -8 -15 -4 -38 13 -81 -128 -224 -246 -251 -23 -5 -44 -12 -47
-14 -7 -7 -22 -77 -23 -103 0 -30 57 -98 113 -133 27 -18 47 -38 47 -48 0 -12
17 -26 49 -40 66 -31 101 -82 101 -151 0 -40 -5 -56 -20 -69 -32 -27 -25 -53
18 -69 24 -10 49 -32 72 -66 41 -59 56 -74 103 -108 55 -39 89 -98 83 -140
-19 -116 -19 -115 2 -140 15 -18 23 -22 33 -14 14 11 105 27 147 25 12 0 47
-19 77 -41 61 -45 84 -49 110 -20 10 11 24 20 31 20 7 0 48 12 91 26 88 29
131 28 203 -5 25 -11 57 -21 71 -21 15 0 32 -7 39 -15 7 -8 27 -15 44 -15 37
0 59 20 100 93 25 44 29 47 67 47 23 0 54 8 70 17 24 14 34 15 62 5 18 -7 47
-12 63 -12 55 0 70 -10 91 -61 l21 -49 51 0 c46 0 51 -2 56 -25 3 -14 8 -37
11 -52 8 -42 52 -93 93 -110 20 -9 48 -24 64 -35 28 -20 95 -26 138 -13 34 11
121 70 150 102 14 15 36 49 49 76 19 38 28 47 50 47 17 0 34 10 48 30 12 16
22 32 22 35 0 4 -19 5 -42 4 -49 -4 -50 0 -27 87 13 46 29 66 139 176 69 69
150 152 180 184 30 33 82 77 114 98 57 38 146 122 176 166 8 13 24 35 35 49
11 14 29 42 39 61 10 19 27 44 36 55 27 33 60 91 60 108 0 19 48 93 58 89 20
-8 19 -53 -3 -81 -13 -18 -25 -53 -28 -83 -4 -28 -11 -56 -17 -62 -5 -5 -10
-31 -10 -57 0 -30 -7 -55 -19 -70 -10 -13 -21 -35 -24 -49 -20 -89 -64 -177
-136 -275 -16 -22 -32 -52 -36 -67 -7 -26 -64 -85 -198 -201 -46 -40 -67 -65
-67 -81 0 -15 -17 -38 -51 -67 -29 -26 -63 -68 -80 -101 -15 -31 -33 -59 -39
-63 -5 -3 -10 -15 -10 -25 0 -21 -69 -84 -115 -106 -110 -52 -254 -178 -268
-235 -9 -35 -109 -138 -182 -187 -33 -22 -71 -51 -85 -65 -28 -29 -63 -65 -82
-86 -7 -7 -30 -30 -50 -50 -21 -20 -38 -42 -38 -49 0 -6 -4 -12 -9 -12 -5 0
-44 -28 -88 -63 -43 -34 -90 -68 -105 -76 -15 -8 -48 -41 -73 -73 -25 -33 -67
-72 -92 -86 -26 -15 -83 -64 -128 -109 -44 -45 -97 -89 -117 -98 -30 -12 -40
-23 -49 -56 -8 -25 -23 -47 -38 -56 -14 -9 -39 -25 -55 -36 -15 -10 -40 -22
-54 -26 -20 -6 -32 -22 -55 -75 -35 -84 -31 -111 21 -133 82 -34 173 8 186 85
4 21 14 63 24 96 17 58 54 105 152 193 19 17 46 45 59 62 44 58 135 140 226
204 77 54 98 75 147 149 50 76 63 88 102 101 25 9 58 28 73 44 15 15 42 37 60
48 17 11 51 45 75 75 23 30 51 63 61 72 9 10 17 22 17 26 0 5 25 26 56 47 30
21 77 62 102 90 26 29 65 64 87 78 22 14 84 66 138 116 55 50 154 133 220 185
144 111 179 148 304 326 52 74 141 193 197 265 55 71 114 149 129 173 42 67
115 216 126 259 6 21 22 81 37 133 32 117 43 171 43 232 1 26 6 67 11 90 31
129 48 285 40 363 -17 167 -29 241 -44 277 -23 55 -20 77 20 135 20 29 40 69
45 90 30 129 -16 299 -123 450 -46 66 -217 263 -228 263 -4 0 -39 32 -79 70
-40 39 -79 70 -87 70 -8 0 -14 7 -14 15 0 9 -8 19 -17 22 -9 4 -24 14 -33 22
-9 9 -32 30 -51 46 -37 33 -144 168 -171 216 -9 17 -23 38 -32 48 -9 10 -16
21 -16 25 0 3 -26 31 -57 62 -60 57 -133 104 -162 104 -9 0 -25 6 -36 13 -11
7 -42 22 -70 31 -27 10 -70 29 -95 41 -118 58 -180 80 -290 100 -41 8 -107 23
-146 34 -39 11 -111 27 -160 35 -49 7 -114 21 -144 30 -57 16 -118 18 -320 6z
m1470 -710 c0 -13 -5 -18 -15 -14 -8 4 -15 12 -15 20 0 8 7 14 15 14 8 0 15
-9 15 -20z m-835 0 c-3 -5 -21 -10 -38 -9 -27 0 -29 2 -12 9 28 12 57 12 50 0z
m182 -368 c7 -1 15 -17 18 -34 5 -25 -1 -47 -24 -92 -36 -69 -39 -101 -11
-116 39 -21 22 -100 -32 -154 -10 -9 -22 -34 -28 -55 -7 -25 -27 -53 -62 -85
l-53 -48 23 -18 c12 -10 22 -23 22 -28 0 -12 -40 -39 -100 -68 -25 -13 -56
-34 -70 -49 -19 -20 -30 -24 -52 -20 -39 9 -53 -3 -32 -27 12 -12 14 -22 8
-26 -6 -4 -13 -15 -17 -25 -5 -13 -13 -16 -32 -11 -19 5 -36 -2 -70 -27 -24
-19 -45 -38 -45 -43 0 -5 -8 -15 -17 -22 -14 -10 -15 -15 -6 -25 9 -9 16 -9
25 -1 18 14 198 65 206 58 3 -3 -1 -12 -10 -19 -29 -24 -41 -71 -26 -108 21
-54 9 -103 -32 -131 -19 -13 -43 -27 -53 -31 -15 -5 -16 -10 -7 -28 8 -14 17
-18 28 -14 9 4 33 11 53 15 45 9 59 17 59 36 0 27 35 11 38 -18 3 -25 6 -26
40 -21 20 3 45 10 54 14 23 12 58 11 58 -1 0 -14 47 -12 54 3 5 10 7 10 12 0
3 -7 11 -13 17 -13 18 1 50 49 43 66 -3 8 4 22 15 32 21 17 42 55 44 82 1 8 3
24 4 36 0 11 12 26 25 32 39 18 82 101 49 95 -9 -2 -13 9 -13 32 0 36 18 85
31 85 5 0 30 23 57 51 44 45 52 50 70 40 23 -12 20 -13 120 76 40 37 61 33 87
-16 8 -16 21 -31 30 -35 9 -3 15 -14 14 -23 -2 -10 3 -29 10 -42 20 -37 25
-170 7 -190 -8 -9 -19 -35 -25 -57 -6 -23 -22 -58 -36 -78 -14 -20 -25 -40
-25 -45 0 -11 -48 -132 -65 -163 -8 -14 -15 -32 -15 -38 0 -28 -86 -189 -110
-205 -14 -9 -40 -41 -59 -71 -18 -30 -40 -54 -47 -54 -9 0 -14 -11 -14 -29 0
-24 -10 -37 -50 -68 -27 -21 -53 -48 -56 -60 -7 -26 -12 -27 -50 -13 -40 15
-60 -4 -39 -37 20 -30 12 -56 -20 -73 -14 -7 -25 -17 -25 -22 0 -24 -16 -58
-28 -58 -4 0 -16 15 -25 33 -15 27 -17 46 -11 95 4 37 12 63 20 66 18 7 18 22
-1 30 -8 3 -26 -5 -40 -17 -23 -20 -26 -30 -28 -107 -2 -80 -1 -86 21 -95 12
-5 22 -15 22 -22 0 -6 3 -19 6 -28 5 -11 0 -18 -15 -22 -14 -3 -21 -13 -21
-29 0 -19 5 -24 28 -25 41 -1 97 -25 95 -40 -4 -28 -35 -104 -49 -120 -16 -18
-19 -75 -4 -84 13 -8 63 51 73 87 4 15 13 28 21 28 7 0 21 9 31 20 17 19 18
19 56 0 21 -11 44 -20 51 -20 8 0 67 47 133 105 66 58 123 105 127 105 10 0
45 77 53 118 4 18 13 36 20 38 7 3 16 17 20 31 3 14 22 46 41 71 18 25 34 49
34 53 0 5 14 32 32 61 29 48 40 63 89 116 9 9 28 40 42 67 55 113 94 163 145
189 17 9 32 20 32 25 0 13 65 81 78 81 7 0 12 -11 12 -25 0 -21 -12 -51 -78
-195 -7 -14 -16 -33 -22 -42 -5 -10 -15 -26 -20 -35 -6 -10 -16 -29 -22 -43
-7 -14 -26 -45 -43 -70 -45 -65 -105 -169 -105 -182 0 -14 -52 -132 -61 -138
-4 -3 -13 -17 -19 -30 -6 -14 -22 -43 -35 -65 -14 -22 -28 -47 -32 -55 -10
-22 -73 -112 -94 -136 -11 -11 -19 -28 -19 -36 0 -9 -18 -32 -40 -51 -22 -19
-40 -39 -40 -45 0 -7 -6 -12 -13 -12 -17 0 -207 -186 -207 -202 0 -15 -4 -18
-124 -75 -97 -47 -108 -50 -126 -28 -7 9 -29 15 -51 15 -34 0 -39 3 -39 23 0
24 33 67 51 67 17 0 44 69 32 81 -11 11 -96 -2 -132 -20 -29 -14 -36 -39 -18
-59 23 -25 21 -47 -5 -64 -27 -18 -16 -38 22 -38 34 0 44 -12 35 -41 -6 -17
-12 -20 -33 -15 -15 4 -53 9 -85 13 -47 5 -62 11 -75 31 -13 21 -21 23 -55 19
-58 -8 -83 5 -94 50 l-10 38 -16 -37 c-17 -41 -20 -43 -47 -28 -10 5 -41 10
-69 11 -29 1 -54 6 -57 11 -4 7 16 12 38 10 17 -3 15 30 -2 45 -11 10 -20 23
-20 30 0 8 -13 13 -33 13 -41 0 -49 7 -36 32 8 15 7 24 -7 39 -23 26 -38 19
-39 -16 0 -37 -18 -42 -33 -10 -12 26 -46 36 -36 11 7 -17 -12 -31 -21 -16
-10 17 25 50 52 50 13 0 35 11 49 25 15 15 30 22 41 18 10 -4 14 -2 10 5 -4 6
7 20 23 32 23 17 30 29 28 48 -4 32 -24 40 -31 12 -5 -18 -22 -24 -64 -23 -7
1 -13 -5 -13 -13 0 -8 -4 -14 -10 -14 -5 0 -10 4 -10 10 0 16 23 60 32 60 4 0
8 9 8 20 0 15 -7 20 -29 20 -52 0 -59 7 -54 55 5 36 2 45 -16 57 -26 16 -27
32 -1 58 11 11 20 35 22 60 1 30 7 41 22 46 43 14 48 49 6 41 -36 -8 -39 -3
-44 67 -3 31 -7 60 -11 65 -3 6 0 19 7 30 10 17 10 23 0 33 -17 17 -33 -8 -25
-39 3 -14 1 -23 -6 -23 -6 0 -11 -6 -11 -14 0 -7 -13 -19 -29 -26 -22 -9 -32
-22 -38 -48 -7 -30 -14 -37 -33 -37 -13 0 -25 -6 -28 -14 -3 -10 1 -12 19 -8
13 4 34 7 47 7 15 0 26 9 32 25 11 29 22 31 40 10 20 -24 4 -126 -21 -132 -22
-6 -26 -52 -7 -71 9 -9 9 -15 0 -24 -7 -7 -12 -21 -12 -32 0 -34 -17 -53 -32
-38 -6 6 -23 12 -36 12 -24 0 -24 -1 -18 -60 5 -40 3 -60 -4 -60 -5 0 -10 5
-10 10 0 6 -6 10 -12 10 -7 0 -25 13 -40 28 -30 30 -29 67 1 77 22 7 53 63 40
71 -6 3 -16 1 -22 -5 -6 -6 -19 -11 -29 -11 -10 0 -21 -7 -24 -15 -11 -28 -21
-15 -22 28 0 23 -2 61 -4 84 -4 30 -1 44 8 47 8 3 14 11 14 18 0 9 -3 9 -8 2
-11 -16 -41 -24 -48 -13 -8 14 41 83 71 99 31 17 32 30 3 30 -13 0 -30 5 -38
10 -13 9 -12 13 5 28 26 21 61 89 52 98 -4 4 -15 0 -25 -9 -28 -26 -60 -22
-68 8 -3 14 -12 25 -19 25 -8 0 -15 14 -17 32 -3 34 -33 52 -48 28 -12 -19 1
-62 20 -67 16 -4 17 -17 15 -106 -2 -56 1 -117 7 -135 11 -38 -13 -126 -40
-141 -15 -9 -15 -10 3 -16 55 -18 65 -28 65 -64 0 -20 3 -45 6 -56 3 -11 -2
-29 -10 -40 -12 -16 -17 -18 -27 -7 -17 16 -29 15 -29 -3 0 -24 -37 -18 -44 8
-4 15 0 27 14 39 27 22 25 29 -15 58 -30 21 -34 31 -35 66 0 47 -8 56 -65 75
-22 7 -47 19 -56 26 -8 7 -23 13 -32 13 -23 0 -21 17 3 23 15 4 18 11 14 32
-3 15 0 33 6 40 6 7 8 24 5 37 -5 19 -1 29 19 42 39 25 34 53 -11 65 -53 15
-56 14 -75 -16 -14 -22 -18 -24 -18 -10 0 10 5 27 10 37 7 13 7 21 0 25 -12 7
-13 69 -2 93 5 9 17 35 28 57 21 45 64 63 64 26 0 -27 19 -37 37 -18 17 17 10
37 -13 37 -10 0 -14 12 -14 40 0 44 20 92 51 125 66 69 99 109 99 120 0 20 37
47 62 43 18 -2 25 3 33 28 5 17 15 38 22 46 7 7 10 23 7 34 -3 12 2 27 15 38
17 16 23 17 37 6 13 -12 17 -11 25 1 6 10 3 18 -11 28 -19 13 -19 14 4 58 14
24 39 56 58 69 46 34 167 172 184 212 8 17 18 32 23 32 13 0 111 102 111 115
0 5 13 22 29 38 30 27 65 35 76 17 3 -5 2 -10 -4 -10 -6 0 -18 -14 -26 -30
-13 -26 -14 -37 -4 -64 11 -29 9 -37 -16 -79 -19 -34 -33 -47 -50 -47 -29 0
-86 -103 -67 -122 17 -17 15 -53 -3 -68 -8 -7 -15 -20 -15 -30 0 -10 -11 -25
-25 -34 -14 -9 -25 -12 -25 -7 0 16 -63 41 -77 29 -17 -13 -16 -33 0 -50 23
-23 36 -75 27 -107 -4 -16 -10 -53 -12 -82 -3 -48 -1 -54 15 -51 34 6 77 53
77 84 0 18 10 38 26 53 22 20 24 28 15 39 -13 16 -3 46 26 74 7 7 13 21 13 30
0 8 9 26 21 38 20 22 20 22 2 60 l-19 39 39 35 c96 86 95 83 95 154 0 58 3 69
31 103 17 20 31 49 31 62 0 20 -3 22 -12 13 -17 -17 -48 -15 -48 2 0 8 9 18
20 21 11 3 32 22 46 41 15 19 34 34 43 34 9 0 25 14 36 30 15 23 28 30 52 30
24 0 42 10 71 39 21 21 56 48 78 59 22 11 46 27 53 36 7 8 36 27 64 41 29 15
55 30 59 34 6 5 139 7 175 3z m143 -29 c0 -62 -12 -116 -21 -101 -10 15 -11
83 -3 116 10 35 24 26 24 -15z m-35 -165 c-10 -73 -24 -95 -25 -38 0 54 9 90
22 90 6 0 7 -20 3 -52z m505 5 c0 -21 -9 -53 -20 -70 -17 -28 -24 -32 -49 -27
-16 4 -31 1 -35 -5 -4 -6 -16 -11 -26 -11 -19 0 -19 2 -4 33 15 30 108 117
126 117 4 0 8 -17 8 -37z m-535 -177 c-7 -55 -39 -138 -67 -175 -10 -13 -18
-31 -18 -40 0 -9 -15 -39 -32 -66 -18 -28 -39 -62 -45 -77 -7 -16 -17 -28 -22
-28 -5 0 -12 -13 -16 -30 -4 -17 -15 -32 -26 -35 -25 -8 -38 2 -15 11 12 5 16
19 16 57 0 50 5 59 53 105 10 9 25 31 33 47 8 17 23 44 33 60 11 17 25 48 31
70 7 22 17 43 22 46 6 4 12 28 15 55 7 72 10 79 29 63 13 -10 15 -24 9 -63z
m1217 4 c24 -32 33 -76 29 -138 -2 -29 -21 1 -21 33 0 24 -6 38 -20 45 -11 6
-20 17 -20 25 0 7 -12 27 -26 44 l-26 31 24 9 c15 6 25 5 28 -3 3 -7 17 -27
32 -46z m68 -226 c0 -19 -4 -34 -10 -34 -5 0 -10 18 -10 41 0 24 4 38 10 34 6
-3 10 -22 10 -41z m-1070 -38 c0 -3 -4 -8 -10 -11 -5 -3 -10 -1 -10 4 0 6 5
11 10 11 6 0 10 -2 10 -4z m-1220 -332 c0 -16 -16 -19 -25 -4 -8 13 4 32 16
25 5 -4 9 -13 9 -21z m1985 -815 c9 -38 -11 -64 -26 -36 -6 9 -15 17 -21 17
-6 0 -7 -7 -3 -17 4 -10 9 -24 12 -30 3 -7 0 -13 -6 -13 -6 0 -11 9 -11 20 0
18 -2 19 -22 8 -13 -7 -28 -20 -34 -28 -17 -21 -25 -9 -18 28 5 22 12 32 25
32 11 0 19 4 19 9 0 17 26 36 53 39 21 1 27 -4 32 -29z m-2695 -226 c-1 -24
-2 -26 -11 -10 -5 9 -7 22 -4 27 10 17 15 11 15 -17z m661 -244 c5 -10 9 -28
9 -40 0 -29 -38 -89 -56 -89 -21 0 -17 21 6 27 27 7 25 11 -15 56 -20 22 -32
44 -28 53 8 20 72 15 84 -7z m-361 -29 c0 -11 -4 -20 -10 -20 -5 0 -10 9 -10
20 0 11 5 20 10 20 6 0 10 -9 10 -20z m180 -16 c0 -8 -4 -12 -10 -9 -5 3 -10
10 -10 16 0 5 5 9 10 9 6 0 10 -7 10 -16z m101 -86 c15 -29 10 -31 -16 -7 -25
24 -32 49 -18 63 4 4 12 -3 16 -16 5 -13 13 -31 18 -40z m-506 22 c3 -5 -1
-10 -9 -10 -9 0 -16 5 -16 10 0 6 4 10 9 10 6 0 13 -4 16 -10z m298 -25 c-7
-21 -13 -19 -13 6 0 11 4 18 10 14 5 -3 7 -12 3 -20z m92 9 c28 -18 33 -42 10
-50 -21 -9 -45 14 -45 42 0 28 3 29 35 8z m-261 -71 c20 -52 31 -63 65 -63
l35 0 -23 -21 c-13 -12 -26 -18 -30 -13 -3 5 -25 22 -48 37 -32 20 -43 34 -43
52 0 30 34 35 44 8z m299 -24 c12 -7 26 -18 30 -26 7 -11 15 -10 46 8 21 11
47 19 57 17 16 -4 15 -7 -8 -16 -22 -9 -28 -18 -28 -42 0 -31 17 -39 37 -19
16 16 67 7 71 -12 2 -9 -4 -24 -13 -32 -22 -23 -19 -54 7 -63 17 -5 19 -8 6
-15 -20 -11 -84 7 -92 26 -3 8 -12 15 -20 15 -8 0 -17 9 -21 19 -9 30 -93 111
-115 111 -21 0 -34 15 -25 30 8 13 41 13 68 -1z m252 -39 c0 -8 -8 -16 -17
-18 -13 -2 -18 3 -18 18 0 15 5 20 18 18 9 -2 17 -10 17 -18z"/>
<path d="M7697 15728 c-6 -24 -13 -28 -42 -28 -28 0 -35 -4 -35 -20 0 -14 -16
-27 -55 -45 -30 -15 -55 -30 -55 -34 0 -4 10 -13 23 -18 27 -13 52 -2 80 34
10 13 32 30 48 38 16 9 29 22 29 29 0 8 5 16 11 18 6 2 9 15 7 28 l-4 25 -7
-27z"/>
<path d="M7370 15605 c-19 -14 -47 -25 -65 -25 -32 0 -48 -13 -72 -57 -17 -31
-16 -41 5 -45 9 -3 35 10 57 27 61 48 76 55 97 42 24 -15 39 1 41 44 2 43 -18
48 -63 14z"/>
<path d="M7534 15477 c-11 -12 -24 -40 -27 -61 -5 -30 -17 -49 -48 -77 -30
-27 -40 -42 -37 -60 5 -36 35 -35 71 4 18 18 40 37 51 40 13 5 16 12 11 25
-19 42 -17 70 4 81 14 8 21 21 21 41 0 36 -17 38 -46 7z"/>
<path d="M7256 15363 c-3 -3 -6 -14 -6 -24 0 -11 -9 -19 -22 -21 -15 -2 -22
-9 -22 -21 1 -9 -5 -17 -13 -17 -8 0 -12 -4 -9 -9 11 -17 47 1 62 30 8 16 19
29 24 29 12 0 13 27 1 34 -4 3 -11 3 -15 -1z"/>
<path d="M7292 15238 c-6 -16 -18 -28 -27 -28 -8 0 -15 -4 -15 -9 0 -5 -12
-24 -26 -41 -21 -24 -32 -30 -51 -25 -22 5 -51 -5 -77 -27 -49 -40 -60 -48
-68 -48 -4 0 -8 -7 -8 -15 0 -9 -7 -18 -15 -21 -8 -4 -15 -10 -15 -15 0 -14
33 -11 55 5 11 7 33 16 49 20 17 4 40 18 53 32 14 15 33 24 52 24 20 0 35 8
45 22 9 12 16 19 16 14 0 -5 7 -3 15 4 9 7 15 29 15 50 0 21 5 40 11 42 6 2 9
13 7 23 -4 18 -6 17 -16 -7z"/>
<path d="M7323 15158 c2 -7 10 -13 17 -13 7 0 15 6 18 13 2 7 -5 12 -18 12
-13 0 -20 -5 -17 -12z"/>
<path d="M7940 15010 c0 -5 7 -10 15 -10 8 0 15 5 15 10 0 6 -7 10 -15 10 -8
0 -15 -4 -15 -10z"/>
<path d="M8010 14968 c-22 -24 -26 -43 -10 -53 6 -3 10 1 10 9 0 9 16 22 35
30 19 8 35 20 35 25 0 19 -49 11 -70 -11z"/>
<path d="M6695 14910 c-8 -13 3 -30 20 -30 7 0 15 -7 19 -15 3 -9 12 -12 21
-9 14 6 12 11 -11 35 -30 31 -39 35 -49 19z"/>
<path d="M7106 14905 c-3 -9 -6 -26 -6 -37 0 -27 24 -17 28 11 5 29 -13 49
-22 26z"/>
<path d="M7285 14911 c-8 -15 3 -31 21 -31 9 0 14 7 12 17 -4 20 -24 28 -33
14z"/>
<path d="M7906 14863 c-26 -58 -48 -98 -57 -101 -4 -2 -11 -35 -15 -73 -5 -49
-11 -69 -21 -69 -27 0 -89 -39 -100 -63 -7 -14 -21 -28 -33 -32 -13 -4 -23
-18 -27 -36 -3 -16 -9 -29 -14 -29 -4 0 -10 -8 -13 -18 -4 -10 -26 -39 -50
-64 -48 -51 -64 -99 -40 -123 19 -19 34 -19 34 -1 0 20 49 76 66 76 19 0 76
92 64 104 -18 18 -11 34 20 49 42 22 119 89 120 106 0 8 7 19 15 25 10 7 18
34 22 69 5 48 12 64 39 91 37 37 47 93 20 115 -11 9 -17 4 -30 -26z"/>
<path d="M7320 14861 c0 -5 3 -17 6 -25 6 -15 8 -15 20 1 19 25 17 33 -6 33
-11 0 -20 -4 -20 -9z"/>
<path d="M6666 14833 c-11 -11 -6 -23 9 -23 8 0 15 4 15 9 0 13 -16 22 -24 14z"/>
<path d="M7069 14830 c-1 -5 -1 -17 -1 -25 0 -30 2 -36 12 -30 6 3 10 19 10
36 0 26 -18 43 -21 19z"/>
<path d="M6700 14780 c0 -11 5 -20 10 -20 6 0 10 9 10 20 0 11 -4 20 -10 20
-5 0 -10 -9 -10 -20z"/>
<path d="M7290 14790 c0 -5 5 -10 10 -10 6 0 10 5 10 10 0 6 -4 10 -10 10 -5
0 -10 -4 -10 -10z"/>
<path d="M6666 14718 c-2 -7 -7 -40 -10 -72 -4 -33 -11 -66 -17 -73 -8 -9 -8
-22 0 -45 7 -21 9 -58 5 -100 l-6 -66 30 -16 c17 -9 35 -16 40 -16 16 0 21 64
7 80 -22 26 -27 57 -11 73 11 10 12 17 4 25 -7 7 -12 54 -12 113 -1 72 -5 104
-13 106 -7 3 -15 -1 -17 -9z"/>
<path d="M7025 14721 c-7 -12 12 -24 25 -16 11 7 4 25 -10 25 -5 0 -11 -4 -15
-9z"/>
<path d="M7250 14709 c0 -5 5 -7 10 -4 6 3 10 8 10 11 0 2 -4 4 -10 4 -5 0
-10 -5 -10 -11z"/>
<path d="M6397 14693 c-13 -12 -7 -23 13 -23 11 0 20 7 20 15 0 15 -21 21 -33
8z"/>
<path d="M6481 14674 c0 -11 3 -14 6 -6 3 7 2 16 -1 19 -3 4 -6 -2 -5 -13z"/>
<path d="M6902 14667 c-12 -13 -22 -28 -22 -35 0 -6 -8 -16 -19 -21 -25 -14
-35 -51 -13 -51 22 0 102 89 102 112 0 25 -22 22 -48 -5z"/>
<path d="M7482 14660 c0 -14 2 -19 5 -12 2 6 2 18 0 25 -3 6 -5 1 -5 -13z"/>
<path d="M7064 14646 c-3 -14 -12 -27 -19 -30 -8 -3 -18 -20 -23 -38 -7 -26
-13 -32 -32 -30 -29 3 -107 -47 -114 -73 -3 -11 -3 -31 1 -43 4 -18 1 -24 -16
-29 -22 -6 -28 -27 -10 -39 12 -7 59 41 59 61 0 7 11 24 24 38 13 14 26 31 28
38 2 7 13 13 24 14 55 6 74 17 74 45 0 15 7 33 15 40 17 14 21 70 5 70 -5 0
-12 -11 -16 -24z"/>
<path d="M7596 14638 c-17 -23 -22 -58 -8 -58 17 1 74 59 68 69 -12 18 -44 12
-60 -11z"/>
<path d="M6495 14640 c-4 -6 5 -10 20 -10 15 0 24 4 20 10 -3 6 -12 10 -20 10
-8 0 -17 -4 -20 -10z"/>
<path d="M6465 14606 c-27 -15 -35 -27 -35 -52 0 -12 -7 -27 -15 -34 -8 -7
-15 -21 -15 -31 0 -11 7 -19 15 -19 18 0 20 -37 3 -42 -18 -6 0 -27 20 -21 17
4 72 75 72 92 0 5 7 11 15 15 21 8 19 33 -4 41 -10 3 -22 18 -27 34 -8 25 -11
27 -29 17z m-5 -111 c0 -8 -4 -15 -10 -15 -5 0 -10 7 -10 15 0 8 5 15 10 15 6
0 10 -7 10 -15z"/>
<path d="M7018 14453 c7 -3 16 -2 19 1 4 3 -2 6 -13 5 -11 0 -14 -3 -6 -6z"/>
<path d="M7237 14432 c-21 -4 -37 -40 -37 -81 0 -15 -9 -44 -20 -66 -11 -22
-20 -45 -20 -53 0 -7 -7 -26 -15 -41 -12 -24 -12 -31 -1 -40 21 -18 64 22 71
67 3 20 10 45 16 55 8 15 31 160 26 162 -1 1 -10 0 -20 -3z"/>
<path d="M6974 14420 c-36 -14 -42 -60 -8 -60 8 0 14 1 14 3 0 1 4 17 9 35 5
17 9 32 8 31 -1 0 -11 -4 -23 -9z"/>
<path d="M6256 14394 c-4 -10 -2 -22 3 -27 7 -7 13 -5 17 7 4 10 2 22 -3 27
-7 7 -13 5 -17 -7z"/>
<path d="M6907 14323 c-4 -3 -7 -16 -7 -27 0 -12 -7 -29 -15 -39 -7 -11 -11
-25 -8 -33 7 -19 32 -18 40 2 4 11 14 14 32 10 14 -3 20 -3 14 0 -8 3 -13 24
-13 50 0 36 -3 44 -18 44 -10 0 -22 -3 -25 -7z"/>
<path d="M6322 14298 c5 -32 28 -35 28 -4 0 17 -5 26 -16 26 -10 0 -14 -7 -12
-22z"/>
<path d="M6660 14270 c0 -5 7 -10 15 -10 8 0 15 5 15 10 0 6 -7 10 -15 10 -8
0 -15 -4 -15 -10z"/>
<path d="M6960 14160 c0 -5 9 -10 20 -10 11 0 20 5 20 10 0 6 -9 10 -20 10
-11 0 -20 -4 -20 -10z"/>
<path d="M6330 14139 c0 -7 -10 -32 -21 -56 -12 -24 -19 -46 -16 -49 10 -10
58 9 68 27 11 22 -1 81 -19 87 -7 2 -12 -2 -12 -9z"/>
<path d="M7373 14143 c-7 -2 -13 -13 -13 -24 0 -10 6 -19 13 -19 22 0 40 18
34 34 -7 16 -13 18 -34 9z"/>
<path d="M7045 14130 c-18 -8 -17 -9 8 -9 16 -1 26 3 22 9 -3 6 -7 10 -8 9 -1
0 -11 -4 -22 -9z"/>
<path d="M7472 14111 c-8 -22 -17 -31 -32 -31 -31 0 -80 -56 -80 -91 0 -16 -4
-29 -10 -29 -5 0 -21 -12 -35 -27 -25 -27 -34 -73 -15 -73 6 0 10 7 10 15 0 8
7 15 15 15 9 0 18 7 21 15 4 8 12 15 20 15 8 0 14 5 14 10 0 6 11 16 25 22 18
8 25 19 25 41 0 20 6 30 19 34 26 7 56 75 43 98 -8 15 -11 13 -20 -14z"/>
<path d="M7190 14103 c-44 -8 -62 -33 -55 -73 9 -48 22 -59 34 -28 10 27 51
63 82 73 10 4 19 13 19 21 0 14 -27 16 -80 7z"/>
<path d="M6995 14090 c-3 -5 -1 -10 4 -10 6 0 11 5 11 10 0 6 -2 10 -4 10 -3
0 -8 -4 -11 -10z"/>
<path d="M7066 14063 c-12 -12 -6 -33 9 -33 8 0 15 6 15 14 0 17 -14 28 -24
19z"/>
<path d="M6360 14000 c0 -36 12 -38 34 -5 21 32 20 35 -9 35 -21 0 -25 -5 -25
-30z"/>
<path d="M7033 14015 c-7 -8 -13 -19 -13 -25 0 -5 -9 -10 -19 -10 -10 0 -29
-8 -42 -19 -20 -16 -22 -21 -10 -35 8 -10 24 -16 36 -14 31 4 75 -22 75 -44 0
-26 51 -24 68 2 7 11 23 20 37 20 31 0 32 10 4 34 -14 12 -25 14 -31 8 -6 -6
-16 -8 -23 -6 -7 3 -16 1 -20 -5 -12 -20 -35 -12 -35 13 0 14 -4 28 -10 31 -5
3 -7 19 -3 35 6 33 4 36 -14 15z"/>
<path d="M6631 13934 c0 -11 3 -14 6 -6 3 7 2 16 -1 19 -3 4 -6 -2 -5 -13z"/>
<path d="M7430 13900 c0 -13 5 -20 13 -17 6 2 12 10 12 17 0 7 -6 15 -12 18
-8 2 -13 -5 -13 -18z"/>
<path d="M6980 13865 c0 -12 28 -35 44 -35 3 0 0 11 -6 25 -12 27 -38 34 -38
10z"/>
<path d="M7370 13856 c0 -9 7 -16 16 -16 9 0 14 5 12 12 -6 18 -28 21 -28 4z"/>
<path d="M6912 13828 c2 -13 10 -23 18 -23 8 0 16 10 18 23 3 17 -2 22 -18 22
-16 0 -21 -5 -18 -22z"/>
<path d="M8043 13770 c-13 -5 -23 -13 -23 -18 0 -5 -18 -30 -40 -55 -41 -47
-48 -65 -29 -84 17 -17 44 -4 64 33 10 19 21 34 26 34 12 0 50 72 45 86 -6 16
-12 16 -43 4z"/>
<path d="M7253 13742 c-6 -4 -13 -32 -15 -62 -3 -30 -11 -56 -17 -58 -6 -2
-11 -9 -11 -16 0 -8 -9 -25 -20 -39 -23 -28 -28 -115 -8 -135 14 -14 37 12 38
44 0 14 10 26 30 34 17 7 30 19 30 26 0 8 9 19 20 26 11 7 20 24 20 38 0 17
-3 21 -9 12 -7 -11 -9 -11 -14 2 -9 24 3 46 25 46 21 0 57 36 58 57 0 14 -42
28 -62 20 -7 -2 -22 -1 -34 4 -11 4 -25 4 -31 1z"/>
<path d="M7128 13671 c-29 -29 -36 -55 -17 -67 20 -12 51 30 47 64 l-3 31 -27
-28z"/>
<path d="M7012 13518 c-26 -16 -30 -23 -21 -34 14 -17 41 -18 92 -3 36 10 43
29 10 29 -9 0 -24 7 -32 14 -14 13 -20 12 -49 -6z"/>
<path d="M7324 13446 c-3 -14 -4 -31 -2 -40 5 -27 52 4 56 37 3 23 0 27 -22
27 -19 0 -27 -7 -32 -24z"/>
<path d="M7280 13390 c0 -5 5 -10 11 -10 5 0 7 5 4 10 -3 6 -8 10 -11 10 -2 0
-4 -4 -4 -10z"/>
<path d="M6860 16844 c-25 -6 -83 -28 -128 -48 -46 -20 -91 -36 -100 -36 -10
0 -37 -12 -62 -26 -25 -14 -53 -23 -65 -20 -11 2 -38 -2 -60 -10 -22 -7 -48
-14 -58 -14 -28 0 -146 -62 -247 -129 -51 -34 -95 -61 -99 -61 -3 0 -32 -23
-64 -50 -32 -28 -66 -50 -74 -50 -14 0 -14 2 0 18 10 10 17 24 17 30 0 7 5 12
11 12 15 0 107 97 114 120 4 11 32 31 65 46 63 28 100 63 100 94 0 14 -7 20
-23 20 -31 0 -113 -55 -133 -90 -9 -15 -33 -35 -53 -44 -21 -8 -61 -38 -91
-66 -29 -27 -57 -50 -62 -50 -9 0 -60 -44 -91 -79 -12 -13 -28 -29 -36 -35 -8
-6 -42 -38 -76 -71 -34 -33 -93 -89 -132 -125 -39 -36 -75 -75 -82 -87 -6 -13
-20 -23 -30 -23 -21 0 -71 -85 -71 -120 0 -12 13 -38 30 -58 16 -20 36 -54 45
-74 26 -63 77 -75 135 -33 19 14 40 25 47 25 8 0 13 12 13 29 0 22 6 30 25 35
19 5 25 13 25 34 0 19 11 34 34 52 19 14 44 45 56 70 56 116 168 245 260 300
23 14 64 42 90 63 27 20 52 37 55 37 4 0 27 16 52 35 25 19 50 35 54 35 5 0
34 16 65 36 31 20 67 37 81 39 14 1 28 7 32 13 9 14 86 42 116 42 12 0 64 14
115 30 51 17 107 30 123 30 16 0 50 7 76 15 25 8 80 17 122 21 53 4 87 12 113
28 l38 23 -24 26 c-18 21 -39 30 -98 41 -89 16 -92 16 -150 0z m-1033 -546
c-3 -8 -6 -5 -6 6 -1 11 2 17 5 13 3 -3 4 -12 1 -19z m-40 -50 c-3 -8 -6 -5
-6 6 -1 11 2 17 5 13 3 -3 4 -12 1 -19z m-22 -17 c-7 -12 -64 -25 -73 -16 -3
3 0 10 8 15 19 12 73 13 65 1z m-80 -42 c-4 -5 -13 -9 -20 -9 -8 0 -27 -12
-43 -27 -16 -16 -53 -46 -82 -68 -29 -22 -58 -46 -65 -52 -19 -18 -25 -16 -25
7 0 11 7 20 15 20 8 0 14 3 14 8 -7 45 80 115 166 132 34 7 48 3 40 -11z"/>
<path d="M10756 16825 c-3 -9 -2 -24 3 -32 7 -14 10 -13 16 6 8 27 -9 51 -19
26z"/>
<path d="M6640 16545 c-88 -60 -83 -55 -64 -76 13 -15 25 -18 46 -14 31 7 40
-11 11 -22 -10 -4 -32 -22 -49 -40 -17 -18 -40 -33 -50 -33 -27 0 -78 -33
-137 -90 -28 -27 -54 -47 -59 -44 -13 8 -9 30 7 44 8 7 15 20 15 29 0 9 10 21
23 26 12 6 21 16 20 23 -2 7 4 12 12 12 8 0 15 5 15 10 0 6 7 10 15 10 8 0 19
9 25 19 5 11 19 23 30 26 25 8 26 32 3 37 -36 8 -69 -12 -87 -52 -9 -21 -26
-42 -36 -45 -11 -4 -20 -15 -20 -25 0 -10 -9 -22 -20 -25 -11 -3 -20 -13 -20
-21 0 -8 -4 -14 -9 -14 -17 0 -101 -130 -101 -155 0 -30 16 -32 38 -6 10 11
27 22 40 26 20 6 22 3 22 -34 0 -30 4 -41 19 -46 11 -3 27 -17 36 -31 21 -33
73 -64 106 -64 15 0 52 13 83 29 61 33 78 26 47 -18 -12 -16 -21 -34 -21 -40
0 -15 -68 -104 -119 -156 -33 -33 -38 -44 -31 -62 5 -13 13 -23 17 -23 16 0
80 49 117 88 11 13 35 37 53 54 18 17 35 43 38 58 3 16 13 34 21 41 8 6 14 17
14 24 0 20 62 86 99 105 20 10 45 27 55 39 11 12 25 21 33 21 8 0 32 18 54 40
42 42 66 51 188 70 72 12 75 12 91 -10 l17 -23 17 34 c25 51 13 140 -24 167
-44 33 -123 37 -226 13 -155 -37 -174 -41 -194 -41 -22 0 -25 12 -9 42 9 16 6
24 -13 45 -20 21 -29 24 -68 18 -25 -3 -40 -2 -34 2 6 4 14 20 18 36 3 15 11
27 16 27 6 0 10 5 10 10 0 18 -44 9 -80 -15z"/>
<path d="M6214 16045 c-4 -8 -11 -15 -18 -15 -21 0 -113 -108 -129 -152 -3
-10 -11 -18 -17 -18 -5 0 -10 -7 -10 -15 0 -19 -18 -50 -50 -85 -45 -48 -70
-82 -70 -90 0 -5 -9 -14 -20 -20 -10 -6 -22 -26 -26 -45 -4 -25 -15 -40 -40
-54 -27 -16 -34 -27 -34 -51 0 -20 5 -30 15 -30 18 0 64 49 65 68 0 6 4 12 10
12 5 0 17 15 25 33 42 85 50 97 65 102 22 7 82 63 104 97 12 19 16 37 12 54
-5 20 -1 31 19 50 14 13 28 24 31 24 3 0 32 21 64 48 56 46 85 84 73 96 -13
12 -64 6 -69 -9z"/>
<path d="M5886 16015 c-3 -9 0 -15 9 -15 9 0 12 6 9 15 -4 8 -7 15 -9 15 -2 0
-5 -7 -9 -15z"/>
<path d="M5822 15940 c0 -14 2 -19 5 -12 2 6 2 18 0 25 -3 6 -5 1 -5 -13z"/>
<path d="M6896 15924 c-4 -9 -5 -18 -4 -19 7 -6 48 15 48 25 0 17 -37 11 -44
-6z"/>
<path d="M6370 15740 c0 -5 -7 -10 -15 -10 -9 0 -21 -11 -27 -25 -6 -14 -14
-25 -18 -25 -10 0 -30 -47 -23 -54 12 -11 33 -6 33 8 0 8 7 16 15 19 8 4 22
23 32 44 9 21 19 41 21 46 2 4 -1 7 -7 7 -6 0 -11 -4 -11 -10z"/>
<path d="M6781 15714 c0 -11 3 -14 6 -6 3 7 2 16 -1 19 -3 4 -6 -2 -5 -13z"/>
<path d="M5815 15640 c-7 -23 2 -60 16 -60 12 0 12 67 0 75 -5 3 -12 -4 -16
-15z"/>
<path d="M6256 15564 c-11 -28 -6 -54 9 -54 10 0 15 10 15 29 0 34 -15 49 -24
25z"/>
<path d="M6370 15409 c0 -5 5 -7 10 -4 6 3 10 8 10 11 0 2 -4 4 -10 4 -5 0
-10 -5 -10 -11z"/>
<path d="M5822 15360 c0 -14 2 -19 5 -12 2 6 2 18 0 25 -3 6 -5 1 -5 -13z"/>
<path d="M5842 15242 c0 -44 -4 -88 -10 -98 -5 -11 -15 -59 -21 -108 -6 -49
-18 -100 -27 -114 -10 -16 -13 -27 -6 -34 7 -7 14 -3 21 11 7 12 18 21 26 21
8 0 22 15 31 33 14 26 18 62 18 197 1 147 -1 165 -16 168 -15 3 -17 -7 -16
-76z"/>
<path d="M5665 15270 c-19 -37 -19 -84 0 -100 12 -10 16 -10 20 1 41 120 42
129 15 129 -11 0 -26 -12 -35 -30z"/>
<path d="M5782 15280 c0 -14 2 -19 5 -12 2 6 2 18 0 25 -3 6 -5 1 -5 -13z"/>
<path d="M6037 15084 c-10 -10 -8 -67 3 -84 7 -11 11 -8 20 15 6 16 10 38 8
49 -3 21 -20 31 -31 20z"/>
<path d="M5665 15060 c-3 -6 -5 -28 -4 -49 2 -27 -3 -46 -19 -66 -34 -43 -28
-172 7 -151 6 4 11 21 11 38 0 17 8 45 18 62 32 54 19 218 -13 166z"/>
<path d="M5565 15039 c-11 -17 1 -21 15 -4 8 9 8 15 2 15 -6 0 -14 -5 -17 -11z"/>
<path d="M6030 14925 c-6 -19 -16 -35 -21 -35 -5 0 -9 -11 -9 -24 0 -15 -7
-26 -20 -29 -11 -3 -20 -10 -20 -16 0 -16 30 -14 36 3 3 8 18 16 35 20 17 3
29 12 29 21 0 9 7 29 15 45 14 27 14 30 -4 40 -28 14 -28 14 -41 -25z"/>
<path d="M5816 14844 c-9 -25 -7 -72 4 -79 6 -4 10 13 10 44 0 53 -4 62 -14
35z"/>
<path d="M5817 14743 c-4 -3 -7 -25 -7 -49 0 -24 -5 -44 -12 -47 -7 -3 -3 -6
9 -6 17 -1 24 7 32 35 12 43 -3 87 -22 67z"/>
<path d="M5890 14680 c0 -5 5 -10 11 -10 5 0 7 5 4 10 -3 6 -8 10 -11 10 -2 0
-4 -4 -4 -10z"/>
<path d="M5691 13326 c-13 -16 -27 -106 -16 -106 5 0 29 21 53 47 42 43 44 47
26 60 -23 17 -48 17 -63 -1z"/>
<path d="M5225 13241 c-6 -11 9 -23 19 -14 9 9 7 23 -3 23 -6 0 -12 -4 -16 -9z"/>
<path d="M5190 12818 c0 -19 2 -20 10 -8 13 19 13 30 0 30 -5 0 -10 -10 -10
-22z"/>
<path d="M5530 12590 c0 -24 26 -38 42 -22 8 8 8 15 -2 27 -18 21 -40 19 -40
-5z"/>
<path d="M5751 12464 c0 -11 3 -14 6 -6 3 7 2 16 -1 19 -3 4 -6 -2 -5 -13z"/>
<path d="M9070 11840 c0 -6 28 -10 64 -10 36 0 68 5 71 10 4 6 -20 10 -64 10
-41 0 -71 -4 -71 -10z"/>
<path d="M9530 11230 c0 -16 4 -30 10 -30 5 0 18 -9 29 -21 10 -11 22 -16 25
-11 3 5 -1 15 -8 22 -8 6 -18 25 -21 41 -9 39 -35 38 -35 -1z"/>
<path d="M8881 11164 c0 -11 3 -14 6 -6 3 7 2 16 -1 19 -3 4 -6 -2 -5 -13z"/>
<path d="M9038 11173 c7 -3 16 -2 19 1 4 3 -2 6 -13 5 -11 0 -14 -3 -6 -6z"/>
<path d="M9687 11156 c-7 -19 1 -46 14 -46 11 0 11 31 0 48 -7 11 -9 11 -14
-2z"/>
<path d="M9837 11144 c-4 -4 -7 -18 -7 -31 0 -16 6 -23 20 -23 23 0 24 6 7 38
-7 12 -16 19 -20 16z"/>
<path d="M10130 10960 c0 -5 5 -10 11 -10 5 0 7 5 4 10 -3 6 -8 10 -11 10 -2
0 -4 -4 -4 -10z"/>
<path d="M9276 10931 c-7 -11 3 -41 14 -41 14 0 21 17 14 34 -7 18 -20 21 -28
7z"/>
<path d="M10275 10750 c-4 -6 -4 -28 0 -47 5 -27 9 -33 16 -22 12 18 12 66 0
74 -5 3 -13 0 -16 -5z"/>
<path d="M9555 10740 c-3 -6 0 -13 9 -16 18 -7 26 -27 32 -79 7 -58 23 -117
41 -143 13 -21 13 -26 -2 -42 -13 -14 -14 -23 -6 -39 6 -11 11 -24 11 -30 0
-19 -43 -12 -66 10 -13 12 -30 19 -38 16 -13 -5 -14 -10 -2 -38 11 -27 19 -32
56 -34 35 -3 43 0 47 16 4 13 14 19 34 19 30 0 46 14 29 25 -22 13 -37 69 -29
105 9 38 4 66 -16 90 -7 8 -16 41 -20 73 -4 41 -12 60 -25 67 -24 13 -47 13
-55 0z"/>
<path d="M9507 10632 c4 -18 43 -28 43 -11 0 5 -7 9 -15 9 -8 0 -15 5 -15 10
0 6 -4 10 -9 10 -5 0 -7 -8 -4 -18z"/>
<path d="M8793 10604 c-8 -20 13 -42 27 -28 12 12 3 44 -11 44 -5 0 -12 -7
-16 -16z"/>
<path d="M8417 10592 c-23 -25 -22 -53 1 -45 21 8 32 23 32 46 0 22 -13 22
-33 -1z"/>
<path d="M9904 10587 c-10 -26 0 -120 14 -125 9 -3 12 14 12 62 0 61 -14 95
-26 63z"/>
<path d="M10045 10548 c9 -51 13 -57 25 -38 13 21 12 54 -2 68 -22 22 -30 12
-23 -30z"/>
<path d="M10268 10536 c-12 -32 -15 -61 -11 -102 5 -49 10 -59 36 -74 16 -10
36 -16 43 -13 23 9 17 83 -11 131 -14 24 -22 48 -19 53 6 11 -4 49 -15 49 -3
0 -14 -20 -23 -44z"/>
<path d="M8273 10553 c-18 -7 -16 -48 2 -63 21 -18 37 0 33 36 -3 28 -13 36
-35 27z"/>
<path d="M9392 10538 c8 -12 22 -26 31 -32 22 -14 36 3 14 18 -9 7 -17 18 -17
25 0 6 -10 11 -21 11 -20 0 -20 -2 -7 -22z"/>
<path d="M10726 10469 c-29 -23 -33 -41 -12 -58 23 -19 66 14 66 50 0 35 -17
37 -54 8z"/>
<path d="M8730 10424 c0 -14 -9 -37 -20 -51 -11 -14 -20 -34 -20 -43 0 -11
-10 -20 -26 -24 -42 -11 -22 -31 27 -28 24 2 45 5 45 5 7 10 10 167 3 167 -5
0 -9 -12 -9 -26z"/>
<path d="M9985 10387 c-4 -10 -5 -21 -1 -24 10 -10 18 4 13 24 -4 17 -4 17
-12 0z"/>
<path d="M9720 10361 c0 -26 26 -51 54 -51 33 0 37 9 20 41 -11 22 -22 29 -44
29 -23 0 -30 -5 -30 -19z"/>
<path d="M10121 10292 c-30 -56 -19 -186 19 -227 10 -11 20 -33 22 -50 2 -16
8 -30 13 -30 17 0 17 81 0 121 -11 27 -14 54 -10 89 9 81 -19 144 -44 97z"/>
<path d="M9542 10280 c0 -14 2 -19 5 -12 2 6 2 18 0 25 -3 6 -5 1 -5 -13z"/>
<path d="M10658 10269 c-12 -7 -18 -22 -18 -49 0 -22 4 -40 8 -40 13 0 54 79
47 90 -8 12 -15 12 -37 -1z"/>
<path d="M9623 10263 c-35 -13 3 -135 48 -153 39 -16 53 -35 41 -55 -9 -18 15
-85 30 -85 5 0 6 -35 2 -78 -6 -68 -4 -82 15 -117 12 -22 24 -57 27 -77 9 -52
30 -47 43 10 11 47 4 99 -18 126 -12 14 -15 98 -6 145 7 32 7 33 -15 21 -31
-16 -40 0 -40 71 0 41 -5 62 -20 79 -11 13 -20 35 -20 49 0 44 -49 80 -87 64z"/>
<path d="M8535 10230 c-12 -14 -25 -18 -41 -14 -32 8 -32 -22 -1 -70 25 -41
45 -46 51 -13 26 123 25 135 -9 97z"/>
<path d="M8851 10185 c-34 -39 -39 -69 -16 -95 12 -13 12 -21 1 -53 -7 -21
-18 -43 -24 -49 -7 -7 -12 -27 -12 -46 0 -33 1 -34 23 -20 12 8 27 29 32 46
22 66 45 48 45 -35 0 -41 4 -53 15 -53 38 0 41 128 4 137 -17 5 -19 16 -19 99
0 51 -4 95 -9 98 -5 3 -23 -10 -40 -29z"/>
<path d="M8650 10151 c0 -6 5 -13 10 -16 6 -3 10 1 10 9 0 9 -4 16 -10 16 -5
0 -10 -4 -10 -9z"/>
<path d="M9314 10146 c-8 -20 -1 -47 11 -49 6 -1 11 13 13 31 3 32 -14 45 -24
18z"/>
<path d="M10022 10120 c0 -14 2 -19 5 -12 2 6 2 18 0 25 -3 6 -5 1 -5 -13z"/>
<path d="M8580 10040 c0 -11 5 -20 10 -20 6 0 10 -6 10 -14 0 -8 7 -22 16 -31
15 -15 18 -15 32 -1 13 13 14 19 3 40 -11 20 -49 46 -66 46 -3 0 -5 -9 -5 -20z"/>
<path d="M10510 10035 c0 -17 22 -45 36 -45 25 0 13 44 -13 48 -13 2 -23 1
-23 -3z"/>
<path d="M8550 9970 c-4 -48 -2 -67 15 -127 17 -59 30 -66 46 -26 13 35 3 79
-26 106 -13 12 -25 36 -28 52 -4 30 -4 30 -7 -5z"/>
<path d="M9420 9960 c0 -5 5 -10 10 -10 6 0 10 5 10 10 0 6 -4 10 -10 10 -5 0
-10 -4 -10 -10z"/>
<path d="M9387 9903 c-17 -16 -6 -76 21 -109 15 -18 30 -34 35 -34 14 0 7 54
-15 102 -21 47 -28 54 -41 41z"/>
<path d="M9163 9854 c-8 -22 15 -44 26 -25 10 16 4 41 -10 41 -5 0 -12 -7 -16
-16z"/>
<path d="M9575 9820 c3 -5 8 -10 11 -10 2 0 4 5 4 10 0 6 -5 10 -11 10 -5 0
-7 -4 -4 -10z"/>
<path d="M8900 9777 c0 -7 7 -22 15 -33 14 -18 14 -17 15 14 0 22 -5 32 -15
32 -8 0 -15 -6 -15 -13z"/>
<path d="M9220 9770 c0 -5 5 -10 11 -10 5 0 7 5 4 10 -3 6 -8 10 -11 10 -2 0
-4 -4 -4 -10z"/>
<path d="M9935 9736 c-18 -26 -18 -32 -3 -86 13 -49 13 -62 2 -90 -19 -43 -18
-69 2 -77 23 -8 44 23 44 63 0 18 4 35 9 38 17 11 19 45 4 73 -9 15 -21 46
-28 68 l-12 39 -18 -28z"/>
<path d="M8505 9740 c-3 -5 1 -10 9 -10 9 0 16 5 16 10 0 6 -4 10 -9 10 -6 0
-13 -4 -16 -10z"/>
<path d="M8830 9713 c0 -30 12 -63 22 -63 14 0 5 73 -9 78 -7 2 -13 -4 -13
-15z"/>
<path d="M9424 9695 c-8 -19 2 -45 16 -45 5 0 10 14 10 30 0 31 -16 41 -26 15z"/>
<path d="M8500 9630 c0 -5 5 -10 10 -10 6 0 10 5 10 10 0 6 -4 10 -10 10 -5 0
-10 -4 -10 -10z"/>
<path d="M9460 9611 c0 -22 16 -36 24 -22 8 12 -3 41 -15 41 -5 0 -9 -9 -9
-19z"/>
<path d="M9870 9620 c0 -5 5 -10 10 -10 6 0 10 5 10 10 0 6 -4 10 -10 10 -5 0
-10 -4 -10 -10z"/>
<path d="M9330 9611 c0 -3 7 -17 16 -30 15 -21 18 -21 26 -7 5 9 7 20 4 25 -7
11 -46 21 -46 12z"/>
<path d="M9570 9510 c0 -32 -7 -46 -35 -74 -22 -22 -35 -45 -35 -61 0 -29 14
-33 29 -7 10 16 12 16 26 -2 8 -11 15 -28 15 -39 0 -15 6 -18 32 -15 39 4 51
33 18 43 -19 6 -20 12 -14 65 6 58 -8 130 -27 130 -5 0 -9 -18 -9 -40z"/>
<path d="M8401 9464 c0 -11 3 -14 6 -6 3 7 2 16 -1 19 -3 4 -6 -2 -5 -13z"/>
<path d="M8945 9467 c-4 -10 -3 -23 4 -30 16 -16 26 0 14 25 -10 21 -11 22
-18 5z"/>
<path d="M3452 9458 c-13 -13 -3 -48 13 -48 7 0 23 8 36 18 l22 19 -30 11
c-20 7 -34 7 -41 0z"/>
<path d="M9690 9453 c0 -11 5 -24 11 -30 6 -6 14 -45 18 -87 7 -79 -1 -119
-31 -143 -22 -19 -59 11 -56 45 2 18 -2 27 -14 30 -15 3 -18 -4 -18 -41 0 -46
-19 -75 -40 -62 -7 4 -14 -2 -17 -13 -5 -22 -29 -36 -44 -26 -5 3 -9 27 -9 53
0 35 5 53 20 66 21 19 26 51 11 73 -7 11 -11 11 -24 -2 -18 -19 -39 -20 -54
-5 -9 9 -13 3 -18 -22 -5 -30 -7 -50 -14 -131 -2 -24 -23 -23 -39 3 -11 18
-11 24 5 41 17 19 17 20 -7 38 -24 18 -24 19 -6 39 15 17 16 23 6 36 -20 24
-38 18 -56 -17 -9 -18 -22 -36 -28 -40 -8 -6 -8 -8 1 -8 7 0 13 -19 15 -47 3
-41 7 -50 31 -61 15 -7 34 -26 42 -42 14 -27 14 -28 -14 -38 -17 -6 -33 -22
-41 -41 -18 -45 -37 -39 -43 14 -2 25 -13 55 -22 65 -16 18 -16 20 -2 20 28 0
31 23 6 44 -48 41 -54 54 -34 76 24 26 13 68 -22 81 -31 12 -43 0 -43 -44 0
-23 -6 -30 -32 -40 -18 -6 -36 -10 -40 -9 -5 1 -8 -2 -8 -7 0 -5 10 -11 21
-14 18 -5 21 -11 16 -35 -4 -19 -2 -29 6 -29 23 0 68 -36 65 -52 -2 -9 -20
-19 -47 -24 -38 -8 -45 -6 -58 12 -8 12 -21 21 -30 21 -21 0 -103 39 -122 57
-16 17 -22 12 -25 -21 -2 -15 -10 -34 -19 -44 -24 -27 -11 -56 31 -69 34 -12
39 -11 59 12 25 28 33 31 33 11 0 -8 16 -24 36 -35 23 -14 34 -27 30 -36 -3
-10 0 -12 12 -9 14 5 15 4 2 -5 -8 -5 -24 -8 -36 -5 -14 4 -23 0 -28 -12 -9
-24 2 -32 49 -36 39 -3 40 -2 43 30 3 28 7 33 25 30 12 -2 23 -9 23 -15 1 -7
2 -19 3 -27 1 -8 10 -12 25 -9 31 6 48 -23 37 -63 -5 -19 -15 -30 -29 -32 -13
-2 -29 -14 -38 -27 -15 -23 -64 -34 -147 -35 -15 0 -35 -7 -44 -15 -14 -15
-17 -14 -30 5 -22 31 -35 14 -27 -33 6 -36 4 -43 -20 -62 l-26 -21 32 -34 c18
-19 37 -53 43 -75 9 -35 17 -43 65 -67 74 -36 93 -35 127 7 22 28 35 35 63 35
19 0 52 9 73 20 20 11 43 20 51 20 7 0 19 7 27 16 10 12 23 14 54 9 46 -6 58
2 69 47 8 33 70 78 107 78 37 0 46 16 51 85 2 33 15 94 27 135 19 63 32 86 77
134 30 31 54 62 54 67 0 5 -7 26 -15 46 -21 49 -19 57 15 91 45 45 41 86 -11
134 -23 21 -48 38 -55 38 -8 0 -14 9 -14 19 0 11 -4 23 -10 26 -5 3 -10 -2
-10 -12z m-203 -382 c10 -10 28 -21 40 -25 39 -12 41 -56 3 -56 -13 0 -22 -9
-26 -27 -10 -50 -13 -53 -43 -53 -25 0 -30 5 -36 30 -4 16 -4 34 -1 39 3 5 2
29 -3 55 -6 31 -5 47 3 50 24 10 46 5 63 -13z"/>
<path d="M8977 9358 c-3 -35 -8 -76 -12 -91 -8 -31 10 -77 31 -77 19 0 27 37
18 88 -5 26 -9 67 -9 91 0 71 -22 62 -28 -11z"/>
<path d="M9277 9414 c-9 -10 12 -46 24 -39 14 9 11 45 -4 45 -8 0 -17 -3 -20
-6z"/>
<path d="M10340 9400 c0 -5 7 -10 15 -10 8 0 15 5 15 10 0 6 -7 10 -15 10 -8
0 -15 -4 -15 -10z"/>
<path d="M8872 9361 c2 -7 7 -12 11 -12 12 1 9 15 -3 20 -7 2 -11 -2 -8 -8z"/>
<path d="M9105 9340 c-3 -5 -1 -10 4 -10 6 0 11 5 11 10 0 6 -2 10 -4 10 -3 0
-8 -4 -11 -10z"/>
<path d="M8785 9290 c3 -5 10 -10 16 -10 5 0 9 5 9 10 0 6 -7 10 -16 10 -8 0
-12 -4 -9 -10z"/>
<path d="M8750 9170 c-11 -11 -20 -27 -20 -36 0 -12 -8 -14 -45 -8 -44 6 -45
6 -45 -22 0 -16 -7 -42 -15 -57 -9 -18 -15 -61 -16 -117 -1 -71 -4 -87 -15
-83 -9 3 -14 -2 -14 -15 0 -11 6 -22 14 -25 8 -3 17 -24 21 -46 8 -46 16 -50
46 -20 18 18 20 30 16 67 -3 26 -10 48 -16 50 -24 8 -12 71 21 108 27 30 30
39 20 55 -28 45 3 99 57 99 13 0 20 9 23 30 6 39 -6 46 -32 20z"/>
<path d="M9067 9164 c-14 -14 -7 -35 11 -32 9 2 17 10 17 17 0 16 -18 25 -28
15z"/>
<path d="M3345 9151 c-3 -5 -1 -12 5 -16 5 -3 10 1 10 9 0 18 -6 21 -15 7z"/>
<path d="M10077 9125 c-18 -13 -18 -14 1 -33 21 -21 137 -102 146 -102 4 0 6
11 6 25 0 15 -8 29 -22 36 -13 6 -39 29 -59 50 -40 43 -46 45 -72 24z"/>
<path d="M8580 9120 c0 -5 5 -10 10 -10 6 0 10 5 10 10 0 6 -4 10 -10 10 -5 0
-10 -4 -10 -10z"/>
<path d="M8430 9071 c0 -6 5 -13 10 -16 6 -3 10 1 10 9 0 9 -4 16 -10 16 -5 0
-10 -4 -10 -9z"/>
<path d="M8504 9006 c-4 -10 -2 -22 4 -28 8 -8 13 -7 18 6 4 10 2 22 -4 28 -8
8 -13 7 -18 -6z"/>
<path d="M8435 8900 c-4 -6 -3 -16 3 -22 6 -6 12 -6 17 2 4 6 3 16 -3 22 -6 6
-12 6 -17 -2z"/>
<path d="M10374 8894 c-21 -9 -3 -41 38 -70 22 -16 53 -40 69 -53 23 -18 33
-21 42 -12 9 9 -4 27 -56 76 -67 65 -72 68 -93 59z"/>
<path d="M8863 8860 c-13 -6 -23 -18 -23 -30 0 -16 7 -20 30 -20 35 0 62 36
39 51 -17 10 -18 10 -46 -1z"/>
<path d="M9807 8817 c-10 -6 -20 -29 -24 -50 -5 -35 -4 -37 21 -37 17 0 39
-11 58 -30 34 -35 39 -35 78 -15 34 18 38 31 12 39 -25 8 -76 55 -91 84 -13
25 -29 28 -54 9z"/>
<path d="M8760 8781 c0 -6 5 -13 10 -16 6 -3 10 1 10 9 0 9 -4 16 -10 16 -5 0
-10 -4 -10 -9z"/>
<path d="M8315 8709 c-8 -12 6 -42 35 -74 15 -16 30 -42 34 -57 3 -16 10 -28
15 -28 4 0 31 22 60 49 53 50 68 91 33 91 -10 0 -24 6 -30 13 -14 13 -140 19
-147 6z"/>
<path d="M9756 8696 c-6 -26 1 -56 14 -56 14 0 22 40 11 54 -6 7 -8 16 -4 19
3 4 2 7 -4 7 -6 0 -14 -11 -17 -24z"/>
<path d="M8690 8685 c0 -15 6 -25 14 -25 8 0 14 10 14 25 0 15 -6 25 -14 25
-8 0 -14 -10 -14 -25z"/>
<path d="M8580 8675 c0 -8 7 -15 15 -15 8 0 15 7 15 15 0 8 -7 15 -15 15 -8 0
-15 -7 -15 -15z"/>
<path d="M8751 8655 l-23 -25 52 0 c48 0 51 2 48 23 -4 32 -47 34 -77 2z"/>
<path d="M10650 8660 c0 -11 29 -40 40 -40 4 0 17 -16 29 -35 23 -39 47 -53
63 -37 13 13 -46 77 -62 67 -5 -3 -10 0 -10 7 0 7 -14 21 -30 30 -17 9 -30 13
-30 8z"/>
<path d="M10094 8613 c-7 -11 -7 -30 -2 -49 7 -27 14 -33 46 -38 86 -14 142
-18 142 -9 0 5 -23 27 -52 48 -93 71 -115 79 -134 48z"/>
<path d="M9717 8473 c-11 -11 -8 -48 5 -61 7 -7 22 -12 35 -12 19 0 23 5 23
30 0 36 -42 65 -63 43z"/>
<path d="M9521 8421 c-9 -15 -7 -20 12 -25 29 -7 44 9 27 29 -17 20 -27 19
-39 -4z"/>
<path d="M10040 8424 c-11 -12 -10 -18 3 -31 18 -18 44 -12 54 13 11 30 -35
45 -57 18z"/>
<path d="M9250 8401 c0 -27 26 -44 56 -37 l25 7 -23 24 c-28 30 -58 33 -58 6z"/>
<path d="M10389 8415 c-12 -11 5 -76 21 -85 33 -18 63 7 42 35 -15 20 -59 55
-63 50z"/>
<path d="M9142 8320 c0 -14 2 -19 5 -12 2 6 2 18 0 25 -3 6 -5 1 -5 -13z"/>
<path d="M8753 8303 c-4 -9 3 -32 16 -52 12 -20 33 -60 47 -89 24 -54 38 -60
58 -29 8 12 7 22 -2 35 -7 9 -21 35 -32 58 -23 48 -58 94 -71 94 -5 0 -13 -8
-16 -17z"/>
<path d="M9750 8313 c-8 -3 -25 -14 -37 -25 -12 -11 -26 -17 -32 -14 -5 4 -12
2 -15 -3 -8 -12 4 -42 13 -36 4 2 15 -11 24 -30 9 -19 21 -35 26 -35 14 0 31
34 31 63 0 32 24 51 54 43 26 -6 53 15 41 34 -6 10 -78 13 -105 3z"/>
<path d="M2735 8248 c10 -34 23 -44 37 -30 9 9 7 16 -7 32 -24 27 -38 25 -30
-2z"/>
<path d="M9360 8226 c0 -9 7 -16 16 -16 9 0 14 5 12 12 -6 18 -28 21 -28 4z"/>
<path d="M10240 8147 c0 -27 17 -47 41 -47 31 0 33 22 5 47 -34 29 -46 29 -46
0z"/>
<path d="M9245 8150 c4 -6 11 -8 16 -5 14 9 11 15 -7 15 -8 0 -12 -5 -9 -10z"/>
<path d="M9451 8104 c-14 -32 0 -54 34 -54 55 0 73 31 37 63 -27 25 -57 21
-71 -9z"/>
<path d="M9887 8109 c-10 -6 -24 -8 -31 -6 -15 6 -24 0 -50 -30 -17 -21 -18
-25 -4 -40 9 -10 19 -28 22 -41 4 -12 16 -27 27 -32 10 -6 19 -15 19 -19 0
-17 55 -71 72 -71 10 0 36 18 59 39 26 26 51 41 72 43 48 5 47 32 -3 58 -54
27 -81 20 -73 -21 6 -30 -4 -38 -25 -17 -9 9 -18 9 -37 0 -14 -7 -35 -12 -45
-12 -42 0 -13 126 34 148 20 10 20 11 1 11 -11 0 -28 -4 -38 -10z"/>
<path d="M9280 8077 c0 -9 14 -30 30 -47 17 -17 30 -35 30 -40 0 -16 46 -12
60 5 19 23 5 42 -36 48 -20 3 -47 16 -60 28 -20 19 -24 20 -24 6z"/>
<path d="M8963 8009 c-38 -14 -27 -52 34 -119 18 -19 33 -40 33 -46 0 -6 7
-18 16 -25 14 -11 18 -10 30 6 20 27 17 40 -11 53 -17 8 -25 20 -25 36 0 13
-7 29 -15 36 -8 7 -15 20 -15 30 0 26 -21 39 -47 29z"/>
<path d="M10378 7972 c-10 -2 -18 -8 -18 -13 0 -30 73 -119 87 -106 3 4 -7 33
-23 65 -21 42 -34 57 -46 54z"/>
<path d="M9598 7938 c-3 -7 1 -19 9 -26 17 -18 55 -6 51 16 -4 21 -54 29 -60
10z"/>
<path d="M10597 7918 c-8 -31 10 -50 34 -37 18 9 18 11 3 34 -20 31 -30 31
-37 3z"/>
<path d="M9490 7882 c-52 -7 -65 -54 -21 -76 16 -9 31 -26 35 -38 8 -32 69
-79 87 -67 12 8 11 12 -3 23 -10 7 -18 18 -18 24 0 6 -11 23 -24 39 -14 16
-26 45 -28 64 -3 30 -6 34 -28 31z"/>
<path d="M8704 7859 c-3 -6 5 -23 20 -37 l26 -27 0 38 c0 30 -4 37 -19 37 -11
0 -23 -5 -27 -11z"/>
<path d="M10133 7840 c-29 -17 -57 -30 -63 -30 -6 0 -24 -14 -40 -30 -26 -26
-28 -33 -18 -50 18 -28 48 -25 74 7 17 22 36 30 80 38 63 11 72 22 60 71 -8
32 -30 30 -93 -6z"/>
<path d="M9713 7794 c-10 -26 14 -41 35 -21 15 16 15 19 2 27 -21 14 -30 12
-37 -6z"/>
<path d="M10233 7772 c-17 -11 0 -73 26 -96 22 -20 55 -18 58 4 4 22 -69 101
-84 92z"/>
<path d="M9307 7764 c-8 -8 1 -24 14 -24 5 0 9 7 9 15 0 15 -12 20 -23 9z"/>
<path d="M10756 7751 c-4 -7 -5 -15 -2 -18 9 -9 19 4 14 18 -4 11 -6 11 -12 0z"/>
<path d="M9350 7676 c0 -57 51 -89 58 -37 3 20 -33 70 -50 71 -5 0 -8 -15 -8
-34z"/>
<path d="M9166 7682 c-3 -5 1 -18 9 -28 14 -18 14 -18 15 3 0 23 -15 39 -24
25z"/>
<path d="M10052 7679 c2 -6 8 -10 13 -10 5 0 11 4 13 10 2 6 -4 11 -13 11 -9
0 -15 -5 -13 -11z"/>
<path d="M10160 7670 c0 -5 -9 -10 -19 -10 -25 0 -30 -9 -24 -43 6 -32 22 -35
46 -7 9 11 26 20 37 20 22 0 26 20 8 38 -15 15 -48 16 -48 2z"/>
<path d="M10580 7670 c0 -13 11 -13 30 0 12 8 11 10 -7 10 -13 0 -23 -4 -23
-10z"/>
<path d="M9810 7653 c-22 -9 -70 -43 -70 -51 0 -4 4 -13 9 -21 8 -12 13 -12
35 2 14 9 34 17 45 17 11 0 22 9 26 20 11 34 -7 47 -45 33z"/>
<path d="M10606 7613 c-11 -12 -6 -72 7 -85 8 -7 19 -23 26 -36 13 -24 52 -30
69 -9 19 23 18 51 -3 55 -24 5 -65 41 -65 58 0 13 -25 26 -34 17z"/>
<path d="M9682 7577 c-30 -32 -28 -52 8 -77 17 -12 30 -30 30 -40 0 -10 4 -21
9 -25 19 -11 21 15 5 52 -9 21 -16 48 -15 60 1 12 -2 29 -6 38 -8 13 -12 12
-31 -8z"/>
<path d="M10370 7570 c-6 -11 -18 -20 -28 -20 -9 0 -45 -19 -79 -42 -67 -46
-81 -77 -43 -100 12 -8 20 -24 20 -40 0 -17 7 -29 19 -33 11 -3 27 -17 36 -31
19 -29 68 -31 73 -2 2 13 -6 19 -35 24 -53 9 -73 30 -73 76 0 24 5 38 13 38 7
0 18 9 25 20 9 15 23 20 55 20 23 0 47 -4 53 -8 5 -4 16 -33 23 -64 10 -47 16
-58 32 -58 62 0 81 58 29 88 -20 12 -39 38 -60 85 -32 71 -43 79 -60 47z"/>
<path d="M8910 7561 c0 -20 13 -41 21 -35 15 9 10 44 -6 44 -8 0 -15 -4 -15
-9z"/>
<path d="M9250 7540 c0 -11 4 -20 9 -20 5 0 7 9 4 20 -3 11 -7 20 -9 20 -2 0
-4 -9 -4 -20z"/>
<path d="M9890 7500 c12 -16 30 -30 42 -30 25 0 19 22 -10 35 -12 5 -22 13
-22 17 0 5 -7 8 -16 8 -13 0 -12 -5 6 -30z"/>
<path d="M9991 7346 c-13 -13 -33 -27 -44 -30 -27 -6 -52 -45 -39 -58 5 -5 14
-3 22 7 18 22 67 19 102 -6 28 -20 30 -26 25 -65 -4 -41 -3 -44 20 -44 30 0
63 17 63 32 0 7 -14 27 -32 45 -25 26 -32 41 -31 70 1 21 -3 46 -8 55 -14 25
-52 22 -78 -6z"/>
<path d="M9380 7329 c0 -14 7 -34 15 -45 14 -18 14 -18 15 7 0 14 -7 34 -15
45 -14 18 -14 18 -15 -7z"/>
<path d="M10564 7267 c-3 -9 -17 -18 -31 -21 -13 -4 -43 -18 -64 -32 -22 -14
-51 -29 -64 -34 -33 -13 -31 -33 6 -64 41 -35 54 -33 76 10 14 28 30 42 73 59
51 22 55 26 55 57 0 27 -4 34 -23 36 -13 2 -24 -3 -28 -11z"/>
<path d="M9440 7231 c0 -5 7 -12 16 -15 22 -9 24 -8 24 9 0 8 -9 15 -20 15
-11 0 -20 -4 -20 -9z"/>
<path d="M9713 7163 c-21 -8 -15 -50 7 -56 17 -4 20 0 20 23 0 31 -8 40 -27
33z"/>
<path d="M10638 7141 c-3 -20 2 -35 18 -50 41 -40 60 -20 24 26 -11 14 -20 32
-20 39 0 26 -18 14 -22 -15z"/>
<path d="M10208 7050 c-37 -37 -33 -60 14 -83 26 -13 39 -27 43 -47 5 -25 12
-30 36 -30 31 0 40 22 16 37 -29 17 -47 59 -47 105 0 58 -17 63 -62 18z"/>
<path d="M9751 7057 c-19 -24 -10 -52 18 -52 31 0 36 16 13 45 -16 20 -19 20
-31 7z"/>
<path d="M10470 7050 c0 -5 5 -10 11 -10 5 0 7 5 4 10 -3 6 -8 10 -11 10 -2 0
-4 -4 -4 -10z"/>
<path d="M10500 7016 c0 -29 15 -43 24 -20 3 8 -1 22 -9 30 -13 14 -15 13 -15
-10z"/>
<path d="M10074 6954 c-26 -18 -22 -50 7 -57 21 -6 39 18 39 52 0 24 -16 26
-46 5z"/>
<path d="M10705 6950 c-22 -11 -46 -29 -53 -40 -11 -19 -10 -20 30 -21 105 -3
118 3 118 54 0 23 -4 27 -27 27 -16 0 -46 -9 -68 -20z"/>
</g>
</svg>
